# xmcd
#
# Track frame offsets:
#	150
#	19578
#	33376
#	52486
#	77534
#	93056
#	112864
#	131631
#	149367
#	171511
#	184664
#	200434
#	211934
#	222426
#	242039
#	261620
#	273929
#	290364
#	312109
#	327094
#
# Disc length: 4615 seconds
#
# Revision: 1
# Processed by: cddbd v1.4PL0 Copyright (c) Steve Scherf et al.
# Submitted via: audiograbber 1.81.02
#
DISCID=29120514
DTITLE=::: - 8 Марта
DYEAR=1900
DGENRE=
TTITLE0=ERA - Аmеnо
TTITLE1=Paul Mauriat - Love Story
TTITLE2=JJ Go!dman - Соmmе Toi
TTITLE3=Sultans of swing - --
TTITLE4=Joe Dassin - Nostalgies
TTITLE5=Dalida - Et Si Tu N' existais
TTITLE6=Mireille Mathieu - Une Fеmmе Amoureuse
TTITLE7=Pink Floyd - Another Brick
TTITLE8=ППК - Воскрешение
TTITLE9=Mireille Mathieu - Une Historie D'amour 
TTITLE10=The Cure - Disintegration
TTITLE11=Mireille.Mathieu - La Donna Madre
TTITLE12=N. Croisille and F.Lai - Un Homme Et Unе Fеttе
TTITLE13=Freddy Mercury and М. Caballe - Ensueno
TTITLE14=Alizee - Moi.. .Lolita
TTITLE15=Joe Dassin - А Toi
TTITLE16=Paul Mauriat - Care!ess Whisper
TTITLE17=Milene Farmer - Pourvu Qu'elles Soient Douces
TTITLE18=Mireille.Mathieu - Perdonne Moi Cе Caprice D' enfant
TTITLE19=QUEEN - The Show Must Goon
EXTD=
EXTT0=
EXTT1=
EXTT2=
EXTT3=
EXTT4=
EXTT5=
EXTT6=
EXTT7=
EXTT8=
EXTT9=
EXTT10=
EXTT11=
EXTT12=
EXTT13=
EXTT14=
EXTT15=
EXTT16=
EXTT17=
EXTT18=
EXTT19=
PLAYORDER=
